<svg width="386" height="422" viewBox="0 0 386 422" fill="none" xmlns="http://www.w3.org/2000/svg">
<circle cx="193" cy="251" r="193" fill="#24A1CF"/>
<rect x="361.393" y="150" width="19" height="66.1401" rx="9.5" transform="rotate(34.9533 361.393 150)" fill="#96DCF6"/>
<rect x="274.393" width="19" height="66.1401" rx="9.5" transform="rotate(34.9533 274.393 0)" fill="#69CCF2"/>
<path d="M335.54 85.3633L335.699 85.8018L336.138 85.9609L344.489 88.999L336.136 92.04L335.697 92.1992L335.537 92.6377L332.499 100.989L329.459 92.6357L329.3 92.1973L328.861 92.0381L320.511 88.999L328.863 85.959L329.302 85.7998L329.461 85.3613L332.499 77.0107L335.54 85.3633Z" fill="#C7F0FF" stroke="#24A1CF" stroke-width="1.99993"/>
<path d="M320.154 88.0655L328.522 85.0196L331.565 76.6539C331.635 76.4622 331.762 76.2967 331.929 76.1797C332.096 76.0627 332.295 76 332.499 76C332.703 76 332.902 76.0627 333.069 76.1797C333.237 76.2967 333.364 76.4622 333.433 76.6539L336.479 85.0216L344.847 88.0655C345.039 88.1353 345.204 88.2623 345.321 88.4294C345.438 88.5965 345.501 88.7955 345.501 88.9994C345.501 89.2034 345.438 89.4024 345.321 89.5695C345.204 89.7366 345.039 89.8636 344.847 89.9334L336.477 92.9793L333.433 101.347C333.364 101.539 333.237 101.704 333.069 101.821C332.902 101.938 332.703 102.001 332.499 102.001C332.295 102.001 332.096 101.938 331.929 101.821C331.762 101.704 331.635 101.539 331.565 101.347L328.52 92.9773L320.154 89.9334C319.962 89.8636 319.797 89.7366 319.68 89.5695C319.563 89.4024 319.5 89.2034 319.5 88.9994C319.5 88.7955 319.563 88.5965 319.68 88.4294C319.797 88.2623 319.962 88.1353 320.154 88.0655Z" fill="#C7F0FF" stroke="#24A1CF" stroke-width="1.99993" stroke-linecap="round" stroke-linejoin="round"/>
<path d="M97.5398 32.3633L97.699 32.8018L98.1375 32.9609L106.489 35.999L98.1355 39.04L97.697 39.1992L97.5369 39.6377L94.4988 47.9893L91.4587 39.6357L91.2996 39.1973L90.8611 39.0381L82.5105 35.999L90.863 32.959L91.3015 32.7998L91.4607 32.3613L94.4988 24.0107L97.5398 32.3633Z" fill="#C7F0FF" stroke="#24A1CF" stroke-width="1.99993"/>
<path d="M82.1536 35.0655L90.5213 32.0196L93.5652 23.6539C93.635 23.4622 93.7621 23.2967 93.9291 23.1797C94.0962 23.0627 94.2952 23 94.4992 23C94.7032 23 94.9022 23.0627 95.0692 23.1797C95.2363 23.2967 95.3634 23.4622 95.4332 23.6539L98.4791 32.0216L106.847 35.0655C107.038 35.1353 107.204 35.2623 107.321 35.4294C107.438 35.5965 107.501 35.7955 107.501 35.9994C107.501 36.2034 107.438 36.4024 107.321 36.5695C107.204 36.7366 107.038 36.8636 106.847 36.9334L98.4771 39.9793L95.4332 48.347C95.3634 48.5387 95.2363 48.7042 95.0692 48.8212C94.9022 48.9381 94.7032 49.0009 94.4992 49.0009C94.2952 49.0009 94.0962 48.9381 93.9291 48.8212C93.7621 48.7042 93.635 48.5387 93.5652 48.347L90.5193 39.9773L82.1536 36.9334C81.962 36.8636 81.7964 36.7366 81.6795 36.5695C81.5625 36.4024 81.4998 36.2034 81.4998 35.9994C81.4998 35.7955 81.5625 35.5965 81.6795 35.4294C81.7964 35.2623 81.962 35.1353 82.1536 35.0655Z" fill="#C7F0FF" stroke="#24A1CF" stroke-width="1.99993" stroke-linecap="round" stroke-linejoin="round"/>
</svg>
