<svg width="171" height="439" viewBox="0 0 171 439" fill="none" xmlns="http://www.w3.org/2000/svg">
<path d="M224.622 756.405C185.993 762.821 146.326 757.335 110.889 740.675C75.451 724.015 45.9194 696.97 26.2151 663.131C6.51082 629.291 -2.43396 590.258 0.568498 551.215C3.57096 512.172 18.3786 474.966 43.0252 444.537C67.6718 414.109 100.991 391.897 138.559 380.851C176.128 369.805 216.167 370.449 253.361 382.695C290.555 394.942 323.144 418.213 346.8 449.418C370.457 480.622 384.061 518.285 385.808 557.404L367.975 558.201C366.39 522.7 354.043 488.521 332.575 460.202C311.106 431.883 281.532 410.765 247.778 399.651C214.024 388.537 177.688 387.953 143.595 397.977C109.502 408.001 79.2639 428.159 56.8969 455.773C34.53 483.388 21.0919 517.152 18.3672 552.584C15.6424 588.016 23.7599 623.438 41.6417 654.148C59.5234 684.857 86.3235 709.401 118.483 724.52C150.643 739.639 186.641 744.618 221.697 738.795L224.622 756.405Z" fill="#9CD6EB"/>
<path d="M242.623 781.405C203.993 787.821 164.327 782.335 128.889 765.675C93.4515 749.015 63.9199 721.97 44.2156 688.131C24.5113 654.291 15.5665 615.258 18.569 576.215C21.5714 537.172 36.3791 499.966 61.0257 469.537C85.6723 439.109 118.992 416.897 156.56 405.851C194.128 394.805 234.167 395.449 271.361 407.695C308.555 419.942 341.144 443.213 364.801 474.418C388.457 505.622 402.062 543.285 403.809 582.404L385.975 583.201C384.39 547.7 372.044 513.521 350.575 485.202C329.107 456.883 299.532 435.765 265.778 424.651C232.025 413.537 195.689 412.953 161.595 422.977C127.502 433.001 97.2644 453.159 74.8974 480.773C52.5305 508.388 39.0924 542.152 36.3677 577.584C33.6429 613.016 41.7604 648.438 59.6421 679.148C77.5239 709.857 104.324 734.401 136.484 749.52C168.644 764.639 204.642 769.618 239.698 763.795L242.623 781.405Z" fill="#9CD6EB"/>
<path d="M384.117 136.638C350.9 157.375 312.161 167.517 273.045 165.719C233.928 163.92 196.283 150.265 165.11 126.568C133.936 102.87 110.709 70.2503 98.5112 33.0401C86.3138 -4.16997 85.7236 -44.2101 96.819 -81.7636C107.914 -119.317 130.17 -152.607 160.632 -177.213C191.093 -201.82 228.319 -216.578 267.366 -219.529C306.413 -222.479 345.434 -213.483 379.247 -193.734C413.06 -173.985 440.067 -144.417 456.679 -108.958L440.514 -101.384C425.438 -133.564 400.93 -160.397 370.244 -178.319C339.558 -196.242 304.147 -204.406 268.711 -201.728C233.276 -199.05 199.493 -185.657 171.849 -163.327C144.205 -140.996 124.008 -110.785 113.939 -76.7055C103.869 -42.6254 104.405 -6.28876 115.474 27.4797C126.544 61.2481 147.623 90.8506 175.913 112.357C204.203 133.862 238.366 146.254 273.864 147.886C309.363 149.519 344.519 140.314 374.663 121.495L384.117 136.638Z" fill="#9CD6EB"/>
<path d="M358.802 111.166C332.11 127.83 300.981 135.98 269.548 134.535C238.116 133.089 207.866 122.117 182.816 103.074C157.766 84.0316 139.101 57.8197 129.3 27.919C119.499 -1.98166 119.024 -34.1564 127.94 -64.333C136.856 -94.5095 154.74 -121.26 179.218 -141.033C203.696 -160.806 233.609 -172.665 264.985 -175.036C296.362 -177.407 327.718 -170.178 354.889 -154.308C382.06 -138.438 403.761 -114.679 417.111 -86.1852L404.121 -80.0995C392.006 -105.958 372.312 -127.52 347.654 -141.922C322.996 -156.323 294.541 -162.884 266.066 -160.732C237.592 -158.58 210.445 -147.818 188.232 -129.874C166.018 -111.93 149.788 -87.6539 141.697 -60.2685C133.606 -32.883 134.036 -3.68425 142.931 23.4508C151.826 50.5858 168.764 74.3733 191.497 91.6547C214.23 108.936 241.682 118.894 270.207 120.205C298.733 121.517 326.983 114.12 351.205 98.9981L358.802 111.166Z" fill="#9CD6EB"/>
</svg>
