<svg width="38" height="39" viewBox="0 0 38 39" fill="none" xmlns="http://www.w3.org/2000/svg">
<path d="M0 0.602051C12.54 0.602051 25.08 0.602051 38 0.602051C38 10.9622 38 21.3224 38 31.9966C26.4543 31.9873 26.4543 31.9873 22.8099 31.9786C21.7311 31.9795 21.7311 31.9795 20.6522 31.9815C20.172 31.9824 19.6918 31.9812 19.2116 31.9786C18.6571 31.9757 18.1028 31.9753 17.5483 31.9781C17.2649 31.9795 16.9817 31.9797 16.6983 31.9766C15.4876 31.9641 14.5813 31.9713 13.6562 32.813C13.5337 32.8952 13.4098 32.9755 13.2834 33.0516C13.2299 33.0851 13.1764 33.1187 13.1213 33.1533C13.0417 33.203 13.0417 33.203 12.9604 33.2537C12.5194 33.5306 12.0798 33.8096 11.6431 34.0933C11.1279 34.4277 10.6112 34.7596 10.0938 35.0906C10.0154 35.1407 9.93701 35.1908 9.85627 35.2425C9.53247 35.4495 9.20863 35.6566 8.8848 35.8636C8.64453 36.0172 8.40429 36.1708 8.16406 36.3245C8.08636 36.3742 8.00867 36.4239 7.92861 36.4751C7.48977 36.7559 7.05179 37.0381 6.61475 37.3218C6.1565 37.6186 5.69744 37.9142 5.23706 38.2078C5.17589 38.2471 5.11472 38.2865 5.05169 38.327C4.99509 38.3629 4.93849 38.3989 4.88017 38.4359C4.8299 38.468 4.77963 38.5002 4.72784 38.5332C4.60156 38.6021 4.60156 38.6021 4.45312 38.6021C4.45312 36.4222 4.45312 34.2424 4.45312 31.9966C2.98359 31.9966 1.51406 31.9966 0 31.9966C0 21.6364 0 11.2762 0 0.602051ZM6.75391 7.87549C6.75391 10.6186 6.75391 13.3617 6.75391 16.188C8.22344 16.188 9.69297 16.188 11.207 16.188C11.0955 18.7542 11.0955 18.7542 10.2004 19.7366C9.1351 20.6926 8.28527 20.667 6.75391 20.7896C6.75391 22.2346 6.75391 23.6796 6.75391 25.1685C8.00019 25.1887 8.00019 25.1887 9.22632 25.0803C9.29352 25.0703 9.36073 25.0602 9.42997 25.0499C10.9803 24.8029 12.4748 24.189 13.7305 23.2388C13.7976 23.188 13.8648 23.1372 13.934 23.0848C16.0274 21.4332 17.3146 19.1727 17.7782 16.5563C17.822 16.1806 17.8222 15.8113 17.8209 15.4334C17.8209 15.3502 17.8209 15.267 17.821 15.1813C17.8209 14.9131 17.8203 14.645 17.8197 14.3769C17.8196 14.2109 17.8196 14.0449 17.8195 13.8789C17.8191 13.2647 17.8181 12.6505 17.8171 12.0364C17.8156 10.6633 17.8141 9.29019 17.8125 7.87549C14.1632 7.87549 10.5138 7.87549 6.75391 7.87549ZM20.1875 7.87549C20.1875 10.6186 20.1875 13.3617 20.1875 16.188C21.657 16.188 23.1266 16.188 24.6406 16.188C24.5532 18.1112 24.5532 18.1112 24.3438 18.6372C24.3249 18.688 24.3061 18.7388 24.2866 18.7912C23.973 19.5201 23.3508 20.0928 22.6367 20.4185C21.9688 20.6411 21.9688 20.6411 20.1875 20.7896C20.1875 22.2346 20.1875 23.6796 20.1875 25.1685C22.9861 25.1685 25.5391 24.6853 27.6836 22.7935C27.7469 22.7391 27.8103 22.6848 27.8755 22.6288C29.7845 20.9606 31.0181 18.5717 31.2461 16.0396C31.256 15.7672 31.2555 15.4952 31.2545 15.2227C31.2545 15.1417 31.2545 15.0607 31.2545 14.9773C31.2545 14.7167 31.2539 14.4562 31.2533 14.1957C31.2532 14.0342 31.2532 13.8727 31.2531 13.7112C31.2527 13.1142 31.2517 12.5173 31.2507 11.9204C31.2484 9.91817 31.2484 9.91817 31.2461 7.87549C27.5968 7.87549 23.9474 7.87549 20.1875 7.87549Z" fill="url(#paint0_linear_272_17)" fill-opacity="0.28"/>
<defs>
<linearGradient id="paint0_linear_272_17" x1="19" y1="0.602051" x2="19" y2="38.6021" gradientUnits="userSpaceOnUse">
<stop stop-color="#316987"/>
</linearGradient>
</defs>
</svg>
