<svg width="62" height="55" viewBox="0 0 62 55" fill="none" xmlns="http://www.w3.org/2000/svg">
<path d="M30.9054 3.29327e-06C29.4978 -0.00125994 28.1138 0.36091 26.8872 1.05145C25.6607 1.74199 24.6332 2.7375 23.9043 3.94162L1.11993 41.9727C0.396219 43.2101 0.0100988 44.6158 0.000195423 46.0493C-0.00970798 47.4827 0.356953 48.8936 1.0635 50.1409C1.77005 51.3882 2.79172 52.4281 4.0263 53.1565C5.26089 53.885 6.66512 54.2766 8.09853 54.292H53.6813C55.1135 54.2819 56.5179 53.8963 57.7544 53.1736C58.9909 52.451 60.0162 51.4166 60.7279 50.1737C61.4396 48.9309 61.8128 47.5231 61.8102 46.0909C61.8076 44.6588 61.4294 43.2523 60.7133 42.012L37.9121 3.95566C37.1823 2.74999 36.1542 1.75266 34.927 1.05981C33.6997 0.366956 32.3147 0.00195904 30.9054 3.29327e-06Z" fill="#FFDEE8"/>
</svg>
