<svg xmlns="http://www.w3.org/2000/svg" xml:space="preserve" id="google" x="0" y="0" version="1.1" viewBox="0 0 32 32">
  <path id="OUTLINE_copy_2" d="M16 0C7.163 0 0 7.164 0 16s7.163 16 16 16c8.836 0 16-7.164 16-16S24.837 0 16 0zm.173 24.596c-4.749 0-8.596-3.847-8.596-8.596s3.847-8.596 8.596-8.596c2.321 0 4.261.855 5.748 2.24l-2.423 2.423v-.005c-.902-.86-2.047-1.3-3.325-1.3-2.836 0-5.141 2.396-5.141 5.232s2.305 5.238 5.141 5.238c2.573 0 4.325-1.472 4.685-3.492h-4.685v-3.353h8.085a9.84 9.84 0 0 1 .166 1.805c0 4.912-3.288 8.404-8.251 8.404z"></path>
</svg>
