<svg width="127" height="48" viewBox="0 0 127 48" fill="none" xmlns="http://www.w3.org/2000/svg">
<g clip-path="url(#clip0_220_2660)">
<path d="M68.4299 4.02977V5.48686C68.4299 6.97701 67.8819 7.92551 66.7859 8.33238C67.976 8.69347 68.571 9.65724 68.571 11.2237V12.799C68.571 15.244 67.2703 16.4665 64.6689 16.4665H59.5195V0.360352H64.5278C67.1292 0.360352 68.4299 1.58349 68.4299 4.02977ZM64.1044 2.75959H62.3422V7.10797H64.1044C65.1394 7.10797 65.6569 6.62227 65.6569 5.65088V4.19379C65.6569 3.23765 65.1394 2.75959 64.1044 2.75959ZM65.798 12.635V11.0597C65.798 10.087 65.2805 9.60066 64.2455 9.60066H62.3383V14.0692H64.2455C65.2818 14.0692 65.7993 13.5911 65.798 12.635Z" fill="#00AEEF"/>
<path d="M77.6927 16.4665L76.9184 12.4462H73.2947L72.5433 16.4665H69.8408L73.1879 0.360352H77.1129L80.4276 16.4665H77.6927ZM73.7429 10.0469H76.4473L75.0837 2.90072L73.7429 10.0469Z" fill="#00AEEF"/>
<path d="M87.4269 16.4665H84.5814V11.2942L80.7021 0.360352H83.5953L84.6767 3.51102C85.2565 5.28216 85.7111 6.88101 86.0404 8.30759C86.432 6.72462 86.8865 5.11814 87.404 3.48813L88.4606 0.360352H91.3061L87.4269 11.2942V16.4665Z" fill="#00AEEF"/>
<path d="M91.8789 3.93455C91.8789 2.75972 92.2705 1.85063 93.0537 1.20727C93.8369 0.563916 94.9615 0.242873 96.4275 0.244144C97.8948 0.244144 99.0353 0.392904 99.849 0.690425V3.39481C98.819 3.01305 97.7261 2.82928 96.6278 2.85317C95.3894 2.85317 94.7702 3.32361 94.7702 4.26449V4.89958C94.7478 5.28139 94.838 5.66138 95.0296 5.9924C95.2012 6.25177 95.5388 6.51306 96.0404 6.78006L98.7448 8.30581C100.016 8.99621 100.652 10.0464 100.652 11.4565V12.843C100.652 14.0356 100.221 14.9568 99.3589 15.6065C98.4968 16.2562 97.2667 16.5817 95.6685 16.583C94.0677 16.583 92.8681 16.4101 92.0696 16.0642V13.337C93.1521 13.7755 94.3119 13.9915 95.4797 13.9721C97.0321 13.9721 97.8077 13.4864 97.8064 12.515V11.9028C97.8265 11.567 97.7404 11.2334 97.5604 10.9492C97.3115 10.6557 97.0026 10.419 96.6545 10.255L94.0683 8.84554C92.6087 8.04961 91.8789 6.89894 91.8789 5.39354V3.93455Z" fill="#00AEEF"/>
<path d="M102.475 0.360352H105.318V16.4665H102.475V0.360352Z" fill="#00AEEF"/>
<path d="M107.859 0.360352H112.984C114.238 0.360352 115.205 0.66995 115.887 1.28915C116.568 1.90835 116.91 2.79837 116.911 3.95921V12.7323C116.911 15.2243 115.649 16.4703 113.125 16.4703H107.859V0.360352ZM114.088 4.05266C114.088 3.16264 113.603 2.71763 112.631 2.71763H110.68V14.0272H112.631C113.604 14.0272 114.09 13.5256 114.088 12.5225V4.05266Z" fill="#00AEEF"/>
<path d="M119.214 0.360352H126.947V2.83015H122.035V7.08508H126.29V9.54726H122.035V13.9891H126.947V16.4589H119.214V0.360352Z" fill="#00AEEF"/>
<path d="M64.2241 19.9968H65.7937V31.4399H64.1059C62.3398 26.9301 61.1872 23.9377 60.6481 22.4628C60.6481 22.5868 60.671 22.8443 60.7149 23.239C60.8052 24.2168 60.8503 25.3026 60.8503 26.4965V31.4399H59.2979V19.9968H61.0029C62.5642 23.9561 63.5146 26.4081 63.8541 27.3528L64.4263 28.9549C64.4263 28.8544 64.3957 28.3566 64.3347 27.4615C64.2737 26.5664 64.2368 25.7031 64.2241 24.8716V19.9968Z" fill="#EE336C"/>
<path d="M75.3239 19.9968H76.9107V28.8366C76.9278 29.2058 76.8689 29.5745 76.7377 29.9199C76.6064 30.2654 76.4057 30.5802 76.1478 30.8449C75.6392 31.3535 74.8827 31.6078 73.8782 31.6078C72.8738 31.6078 72.1173 31.3535 71.6087 30.8449C71.3504 30.5805 71.1494 30.2657 71.0182 29.9202C70.8869 29.5747 70.8282 29.2058 70.8458 28.8366V19.9968H72.425V28.7699C72.425 29.7044 72.9088 30.171 73.8763 30.1697C74.8439 30.1685 75.3271 29.7018 75.3258 28.7699L75.3239 19.9968Z" fill="#EE336C"/>
<path d="M83.542 26.9808V31.436H81.9609V19.9929H85.0315C85.9317 19.9929 86.6208 20.218 87.0989 20.6681C87.577 21.1182 87.816 21.7424 87.816 22.5409V24.3623C87.816 25.6108 87.3379 26.415 86.3818 26.7749L88.2051 31.4322H86.4428L84.8065 26.977L83.542 26.9808ZM83.542 21.3794V25.6477H84.8923C85.3634 25.6477 85.7047 25.5409 85.9126 25.3273C86.1406 25.0546 86.2523 24.7032 86.2235 24.3489V22.6458C86.2235 21.8003 85.7785 21.3782 84.8885 21.3794H83.542Z" fill="#EE336C"/>
<path d="M92.2137 22.4266C92.2137 21.6281 92.475 21.0089 92.9976 20.569C93.5221 20.1322 94.2659 19.911 95.2347 19.911C96.0329 19.8885 96.8296 19.9915 97.5958 20.2161V21.7419C96.8881 21.4832 96.1387 21.3577 95.3854 21.3719C94.3402 21.3719 93.8177 21.7603 93.8177 22.5372V23.1952C93.8012 23.4933 93.8743 23.7895 94.0275 24.0458C94.228 24.3054 94.485 24.516 94.7789 24.6618L96.7357 25.7584C97.6473 26.2543 98.1031 27.0025 98.1031 28.0032V28.9472C98.1031 29.7699 97.8158 30.4056 97.2411 30.8544C96.6689 31.2988 95.8603 31.52 94.8209 31.52C93.7814 31.52 92.9442 31.4018 92.3148 31.1653V29.6395C93.0668 29.9115 93.861 30.0484 94.6607 30.0438C95.8863 30.0438 96.4992 29.6281 96.4992 28.7965V28.2244C96.5138 27.9501 96.4475 27.6775 96.3085 27.4405C96.1244 27.2052 95.8872 27.017 95.6161 26.8913L93.709 25.8461C92.7083 25.3058 92.208 24.5009 92.208 23.4316L92.2137 22.4266Z" fill="#EE336C"/>
<path d="M102.658 19.9968H104.262V31.4399H102.658V19.9968Z" fill="#EE336C"/>
<path d="M114.299 19.9968H115.869V31.4399H114.181C112.415 26.9301 111.262 23.9377 110.723 22.4628C110.723 22.5868 110.746 22.8443 110.79 23.239C110.88 24.2168 110.925 25.3026 110.925 26.4965V31.4399H109.373V19.9968H111.078C112.641 23.9561 113.594 26.4081 113.939 27.3528L114.511 28.9549C114.511 28.8544 114.48 28.3566 114.419 27.4615C114.358 26.5664 114.322 25.7031 114.309 24.8716L114.299 19.9968Z" fill="#EE336C"/>
<path d="M120.83 22.5277C120.83 21.7064 121.109 21.0649 121.665 20.6034C122.222 20.1418 123.068 19.9111 124.204 19.9111C124.928 19.9062 125.65 20.0031 126.348 20.1991V21.7248C125.663 21.4928 124.944 21.3736 124.221 21.372C123.03 21.372 122.433 21.7998 122.432 22.6555V28.8634C122.432 29.6746 122.927 30.0795 123.918 30.0783C124.47 30.0783 124.886 29.9829 125.167 29.7922V25.665H126.735V30.845C125.888 31.3017 124.939 31.5341 123.977 31.5201C122.96 31.5201 122.181 31.309 121.641 30.8869C121.1 30.4648 120.83 29.8322 120.83 28.9893V22.5277Z" fill="#EE336C"/>
<path d="M59.1288 36.4596C59.1288 35.6612 59.3984 35.0394 59.9375 34.5944C60.4766 34.1494 61.2922 33.9275 62.3844 33.9288C63.0565 33.9224 63.7264 34.0078 64.3755 34.1825V35.6491C63.7399 35.4623 63.0812 35.366 62.4187 35.363C61.783 35.363 61.3411 35.4641 61.0932 35.6662C60.9675 35.7806 60.8695 35.9222 60.8067 36.0802C60.7439 36.2382 60.7179 36.4084 60.7308 36.5779V42.904C60.7193 43.0717 60.7469 43.2398 60.8115 43.395C60.876 43.5503 60.9757 43.6884 61.1027 43.7985C61.3494 44.0006 61.8046 44.1017 62.4683 44.1017C63.1298 44.102 63.7882 44.0115 64.4251 43.8328V45.267C63.7562 45.4578 63.0627 45.5484 62.3672 45.5359C60.2057 45.5359 59.125 44.6923 59.125 43.0051L59.1288 36.4596Z" fill="#EE336C"/>
<path d="M69.2341 36.6294C69.2341 35.7864 69.4884 35.1119 69.9969 34.6059C70.5055 34.0999 71.2652 33.8456 72.276 33.843C73.2805 33.843 74.0434 34.0973 74.5647 34.6059C74.8264 34.8716 75.0304 35.1884 75.164 35.5366C75.2976 35.8848 75.3578 36.2569 75.3409 36.6294V42.8564C75.3573 43.2266 75.2968 43.5962 75.1632 43.9418C75.0296 44.2875 74.8258 44.6017 74.5647 44.8646C74.0472 45.3732 73.2881 45.6275 72.2875 45.6275C71.2868 45.6275 70.5278 45.3732 70.0103 44.8646C69.7492 44.6017 69.5454 44.2875 69.4118 43.9418C69.2782 43.5962 69.2177 43.2266 69.2341 42.8564V36.6294ZM73.756 36.6809C73.756 35.7578 73.2665 35.2963 72.2875 35.2963C71.3085 35.2963 70.8189 35.7578 70.8189 36.6809V42.7839C70.8189 43.7184 71.3085 44.1857 72.2875 44.1857C73.2665 44.1857 73.756 43.7184 73.756 42.7839V36.6809Z" fill="#EE336C"/>
<path d="M79.9648 34.0127H81.5688V44.0864H84.9083V45.452H79.9648V34.0127Z" fill="#EE336C"/>
<path d="M90.0879 34.0127H91.688V44.0864H95.0275V45.452H90.0879V34.0127Z" fill="#EE336C"/>
<path d="M100.211 34.0127H105.419V35.4126H101.796V38.9733H104.95V40.3732H101.796V44.0674H105.419V45.4501H100.211V34.0127Z" fill="#EE336C"/>
<path d="M110.569 36.5434C110.569 35.7233 110.848 35.0819 111.405 34.6191C111.962 34.1563 112.808 33.9261 113.943 33.9287C114.668 33.9232 115.389 34.0195 116.087 34.2148V35.7405C115.401 35.5143 114.683 35.4009 113.96 35.4048C112.769 35.4048 112.173 35.8321 112.171 36.6865V42.8944C112.171 43.7056 112.667 44.1105 113.657 44.1092C114.209 44.1092 114.625 44.0139 114.906 43.8232V39.6808H116.482V44.8607C115.635 45.3168 114.685 45.5486 113.724 45.5339C112.707 45.5339 111.928 45.3235 111.388 44.9026C110.846 44.4792 110.577 43.848 110.577 42.9954L110.569 36.5434Z" fill="#EE336C"/>
<path d="M121.439 34.0127H126.654V35.4126H123.03V38.9733H126.185V40.3732H123.022V44.0674H126.646V45.4501H121.439V34.0127Z" fill="#EE336C"/>
<path d="M4.08519 16.8691C4.82107 16.2461 5.66812 15.7679 6.58169 15.4597C7.57793 15.1472 8.61784 14.9965 9.66179 15.0134C10.8075 15.0056 11.9447 15.2093 13.0165 15.6142C14.0533 16.0071 15.0012 16.603 15.8048 17.3669C16.7606 18.244 17.5204 19.3131 18.0343 20.5042C18.5578 21.7028 18.826 22.9973 18.822 24.3052C18.8288 25.698 18.5338 27.0757 17.9573 28.3435C17.3808 29.6114 16.5365 30.7394 15.4825 31.6498C14.6962 32.3289 13.7909 32.8566 12.8125 33.206C11.7922 33.5666 10.7171 33.7473 9.63509 33.74C8.63159 33.749 7.63388 33.5871 6.68468 33.2613C5.74547 32.9258 4.86884 32.436 4.09091 31.8119V33.2709H0V9.67139H4.08519V16.8691ZM4.2473 24.4406C4.23194 25.1191 4.35148 25.7938 4.599 26.4257C4.84651 27.0576 5.21705 27.634 5.68913 28.1215C6.13155 28.6037 6.67076 28.9872 7.27152 29.2468C7.87228 29.5065 8.52106 29.6364 9.17546 29.6282C10.7203 29.6282 12.0006 29.1285 13.0165 28.1291C13.5164 27.6429 13.91 27.0583 14.1726 26.4123C14.4352 25.7663 14.5611 25.0729 14.5423 24.3758C14.5517 23.6869 14.4225 23.0032 14.1624 22.3653C13.9022 21.7274 13.5164 21.1483 13.028 20.6625C12.5603 20.1631 11.9936 19.7667 11.3641 19.4987C10.7345 19.2308 10.056 19.0971 9.3719 19.1062C8.69081 19.0907 8.01405 19.2185 7.38553 19.4814C6.757 19.7442 6.19074 20.1362 5.72346 20.632C5.23631 21.1366 4.85482 21.7334 4.60133 22.3874C4.34785 23.0415 4.22749 23.7395 4.2473 24.4406Z" fill="#00AEEF"/>
<path d="M23.0887 15.4424V17.4698C23.6303 16.7129 24.3441 16.0958 25.1713 15.6694C26.0074 15.2656 26.9264 15.0632 27.8547 15.0781C29.0176 15.0512 30.1702 15.3015 31.2171 15.8086C32.1943 16.3126 33.0198 17.0676 33.6087 17.9961C34.0345 18.6811 34.3342 19.4369 34.4936 20.2275C34.6704 21.0527 34.7594 22.2606 34.7606 23.8512V33.2879H30.6106V25.3769C30.6106 22.9891 30.3347 21.3515 29.7829 20.464C29.2311 19.5766 28.2775 19.1315 26.9221 19.129C25.54 19.129 24.5458 19.6185 23.9393 20.5975C23.3328 21.5766 23.0302 23.2542 23.0315 25.6306V33.2593H19.0264V15.4424H23.0887Z" fill="#00AEEF"/>
<path d="M49.2051 21.7819C48.7888 20.912 48.1258 20.1839 47.2987 19.6881C46.4716 19.1923 45.5169 18.9508 44.5535 18.9936C43.8906 18.9799 43.2326 19.1091 42.6241 19.3724C42.0156 19.6357 41.4709 20.0269 41.0271 20.5193C40.0811 21.5365 39.6081 22.8118 39.6081 24.3452C39.6081 25.8595 40.0919 27.1188 41.0595 28.1233C41.5265 28.6155 42.0918 29.0041 42.7187 29.2636C43.3456 29.5232 44.0201 29.648 44.6984 29.63C45.8237 29.63 46.7588 29.3897 47.5039 28.909C48.281 28.3879 48.8674 27.6282 49.1746 26.7444H53.5992C53.0589 28.9288 52.0055 30.642 50.439 31.8843C48.8726 33.1265 46.9699 33.7476 44.7308 33.7476C42.8638 33.7652 41.035 33.2181 39.4844 32.178C37.9338 31.1379 36.7337 29.6534 36.0417 27.9192C35.5743 26.7968 35.332 25.5934 35.3284 24.3776C35.3189 23.1741 35.539 21.9799 35.9769 20.8588C36.4131 19.7599 37.0611 18.7574 37.884 17.9084C38.7701 16.9575 39.84 16.1964 41.029 15.6713C42.2164 15.1596 43.497 14.8998 44.79 14.9084C46.9731 14.9084 48.8643 15.5295 50.4638 16.7717C52.0633 18.0139 53.1174 19.684 53.6259 21.7819H49.2051Z" fill="#00AEEF"/>
<path d="M9.36662 29.7368C7.93206 29.7338 6.55721 29.1622 5.54336 28.1473C4.52951 27.1324 3.95936 25.7569 3.95785 24.3224C3.9474 24.2672 3.94924 24.2105 3.96324 24.1561C3.97724 24.1018 4.00305 24.0512 4.03884 24.008C4.07464 23.9648 4.11952 23.93 4.1703 23.9061C4.22108 23.8823 4.2765 23.8699 4.33261 23.8699C4.38872 23.8699 4.44414 23.8823 4.49492 23.9061C4.5457 23.93 4.59058 23.9648 4.62637 24.008C4.66216 24.0512 4.68798 24.1018 4.70198 24.1561C4.71598 24.2105 4.71782 24.2672 4.70737 24.3224C4.73206 25.543 5.23429 26.7053 6.10627 27.5598C6.97826 28.4144 8.1505 28.893 9.37139 28.893C10.5923 28.893 11.7645 28.4144 12.6365 27.5598C13.5085 26.7053 14.0107 25.543 14.0354 24.3224C14.025 24.2672 14.0268 24.2105 14.0408 24.1561C14.0548 24.1018 14.0806 24.0512 14.1164 24.008C14.1522 23.9648 14.1971 23.93 14.2479 23.9061C14.2986 23.8823 14.3541 23.8699 14.4102 23.8699C14.4663 23.8699 14.5217 23.8823 14.5725 23.9061C14.6233 23.93 14.6681 23.9648 14.7039 24.008C14.7397 24.0512 14.7655 24.1018 14.7795 24.1561C14.7935 24.2105 14.7954 24.2672 14.7849 24.3224C14.7834 25.7586 14.212 27.1355 13.196 28.1507C12.1801 29.1659 10.8028 29.7363 9.36662 29.7368Z" fill="#EE336C"/>
<path d="M10.0813 21.803H8.64705C8.54804 21.803 8.46777 21.8832 8.46777 21.9823V26.6625C8.46777 26.7615 8.54804 26.8418 8.64705 26.8418H10.0813C10.1803 26.8418 10.2605 26.7615 10.2605 26.6625V21.9823C10.2605 21.8832 10.1803 21.803 10.0813 21.803Z" fill="#EE336C"/>
<path d="M10.0847 26.9352H8.64289C8.57106 26.9352 8.50218 26.9066 8.45139 26.8558C8.4006 26.805 8.37207 26.7362 8.37207 26.6643V21.9784C8.37257 21.9069 8.40133 21.8385 8.45206 21.7881C8.5028 21.7377 8.57139 21.7095 8.64289 21.7095H10.0847C10.12 21.7095 10.155 21.7164 10.1876 21.7299C10.2203 21.7435 10.2499 21.7633 10.2749 21.7882C10.2998 21.8132 10.3197 21.8429 10.3332 21.8755C10.3467 21.9081 10.3536 21.9431 10.3536 21.9784V26.6643C10.3539 26.6998 10.3471 26.735 10.3337 26.7678C10.3203 26.8007 10.3005 26.8305 10.2755 26.8557C10.2506 26.8809 10.2208 26.9009 10.1881 26.9145C10.1553 26.9281 10.1202 26.9352 10.0847 26.9352ZM8.64289 21.8964C8.62114 21.8964 8.60028 21.905 8.5849 21.9204C8.56952 21.9358 8.56088 21.9566 8.56088 21.9784V26.6643C8.56088 26.6863 8.56945 26.7073 8.58478 26.723C8.60011 26.7387 8.62097 26.7478 8.64289 26.7483H10.0847C10.1066 26.7478 10.1275 26.7387 10.1428 26.723C10.1582 26.7073 10.1667 26.6863 10.1667 26.6643V21.9784C10.1667 21.9566 10.1581 21.9358 10.1427 21.9204C10.1273 21.905 10.1065 21.8964 10.0847 21.8964H8.64289Z" fill="#EE336C"/>
<path d="M11.651 23.3936H7.07947C6.99837 23.3936 6.93262 23.4593 6.93262 23.5404V25.1043C6.93262 25.1854 6.99837 25.2511 7.07947 25.2511H11.651C11.7321 25.2511 11.7978 25.1854 11.7978 25.1043V23.5404C11.7978 23.4593 11.7321 23.3936 11.651 23.3936Z" fill="#EE336C"/>
<path d="M11.6526 25.3446H7.07531C7.01241 25.3446 6.95206 25.3197 6.90741 25.2754C6.86276 25.2311 6.83742 25.171 6.83691 25.1081V23.5365C6.83742 23.4736 6.86276 23.4135 6.90741 23.3692C6.95206 23.3249 7.01241 23.3 7.07531 23.3H11.6526C11.7155 23.3 11.7758 23.3249 11.8205 23.3692C11.8651 23.4135 11.8904 23.4736 11.891 23.5365V25.1081C11.8904 25.171 11.8651 25.2311 11.8205 25.2754C11.7758 25.3197 11.7155 25.3446 11.6526 25.3446ZM7.07531 23.487C7.06216 23.487 7.04955 23.4922 7.04025 23.5015C7.03095 23.5108 7.02572 23.5234 7.02572 23.5365V25.1081C7.02572 25.1212 7.03095 25.1338 7.04025 25.1431C7.04955 25.1524 7.06216 25.1576 7.07531 25.1576H11.6526C11.6657 25.1576 11.6783 25.1524 11.6876 25.1431C11.6969 25.1338 11.7021 25.1212 11.7021 25.1081V23.5365C11.7021 23.5234 11.6969 23.5108 11.6876 23.5015C11.6783 23.4922 11.6657 23.487 11.6526 23.487H7.07531Z" fill="#EE336C"/>
<path d="M20.4508 47.9999C24.4998 39.1601 32.4909 34.6496 35.9353 35.0635C42.3415 39.7819 49.4381 35.3724 49.4381 35.3724C44.2773 36.7571 41.529 38.1436 35.2697 33.0056C27.1527 26.0787 21.0993 34.7049 19.6613 35.2942C18.2233 35.8836 16.215 33.881 16.215 33.881V34.375L15.5208 34.1728C15.5208 34.1728 16.8959 35.2828 15.7763 35.3171C14.6568 35.3515 14.5996 36.5702 14.3269 36.963C14.1404 37.2202 13.9182 37.4494 13.667 37.6439C13.667 37.6439 14.1362 38.2637 14.7941 37.9853C15.4521 37.7068 17.6091 36.6255 19.1006 37.6038C20.592 38.5822 22.3561 38.1226 22.3561 38.1226" fill="white"/>
<path d="M15.0576 8.78443V13.4074L14.5445 13.4494C14.4435 12.471 14.4911 11.8741 14.5445 10.7012C14.6189 8.98468 14.4358 7.84037 12.3799 7.23961C17.3824 4.71641 21.9635 2.38011 26.5846 0.123908C27.0271 -0.0916041 27.7918 0.0247343 28.2724 0.261225C32.7829 2.47356 37.2648 4.74502 42.1167 7.1824C40.1408 8.14743 38.4587 9.03046 36.7155 9.77235C36.3456 9.93065 35.6971 9.67509 35.2775 9.43478C29.9813 6.40999 24.6335 6.34324 19.4174 9.43478C17.6075 10.5009 16.7359 8.75582 15.0576 8.78443Z" fill="#EE336C"/>
<path d="M19.3769 13.4131C18.8391 11.8779 19.4398 11.1016 20.7119 10.4494C25.0984 8.19699 29.4335 8.26565 33.8333 10.4208C35.2008 11.0883 35.7577 11.9465 35.2561 13.415C28.3368 9.96305 25.4513 9.9516 19.3769 13.4131Z" fill="#EE336C"/>
<path d="M19.3258 13.5524L19.2877 13.4456C18.6716 11.6796 19.5871 10.9243 20.6685 10.3693C25.0302 8.13221 29.35 8.12077 33.8757 10.3369C35.3767 11.0731 35.8306 12.0324 35.3442 13.4475L35.3099 13.5486L35.2145 13.5009C28.2877 10.0451 25.4879 10.0432 19.4231 13.5009L19.3258 13.5524ZM26.9908 10.7431C29.3385 10.7431 31.7912 11.5899 35.1917 13.2854C35.5903 12.0171 35.165 11.1875 33.7842 10.5067C29.3137 8.31721 25.0493 8.32674 20.7447 10.5353C19.61 11.1189 18.9501 11.8112 19.4192 13.2759C22.4097 11.5861 24.6487 10.7412 26.9908 10.7412V10.7431Z" fill="#EE336C"/>
<path d="M14.7791 12.5188L15.0003 13.2035H15.7212L15.1395 13.6269L15.3608 14.3116L14.7791 13.8882L14.1974 14.3116L14.4186 13.6269L13.8369 13.2035H14.5559L14.7791 12.5188Z" fill="#EE336C"/>
<path d="M21.7435 47.4852C25.3175 39.681 32.3741 35.6969 35.4256 36.0573C46.9698 41.016 62.8433 30.8354 62.8433 30.8354C51.7454 37.667 40.3671 38.7789 34.8382 34.2321C27.6672 28.112 22.3195 35.735 21.0493 36.2538C19.7791 36.7725 17.9978 35.0065 17.9978 35.0065V35.4432L17.3856 35.2639C17.3856 35.2639 18.6004 36.2461 17.6087 36.2805C16.617 36.3148 16.5712 37.3866 16.329 37.7337C16.1681 37.9609 15.9754 38.1639 15.7568 38.3364C15.7568 38.3364 16.1707 38.8838 16.7524 38.6377C17.3341 38.3917 19.2317 37.4362 20.5553 38.2944C21.8789 39.1527 23.4333 38.7522 23.4333 38.7522" fill="white"/>
<path d="M21.7435 47.4852C25.3175 39.681 32.3741 35.6969 35.4256 36.0573C46.9698 41.016 62.8433 30.8354 62.8433 30.8354C51.7454 37.667 40.3671 38.7789 34.8382 34.2321C27.6672 28.112 22.3195 35.735 21.0493 36.2538C19.7791 36.7725 17.9978 35.0065 17.9978 35.0065V35.4432L17.3856 35.2639C17.3856 35.2639 18.6004 36.2461 17.6087 36.2805C16.617 36.3148 16.5712 37.3866 16.329 37.7337C16.1681 37.9609 15.9754 38.1639 15.7568 38.3364C15.7568 38.3364 16.1707 38.8838 16.7524 38.6377C17.3341 38.3917 19.2317 37.4362 20.5553 38.2944C21.8789 39.1527 23.4333 38.7522 23.4333 38.7522" stroke="#F49AC1" stroke-width="0.190718" stroke-linecap="round" stroke-linejoin="round"/>
</g>
<defs>
<clipPath id="clip0_220_2660">
<rect width="126.95" height="48" fill="white"/>
</clipPath>
</defs>
</svg>
